<?xml version="1.0" encoding="UTF-8" standalone="no"?>
<svg
   viewBox="11.719 26.094 364.016 28.141"
   id="svg1"
   sodipodi:docname="logoVector-new.svg"
   inkscape:version="1.4.2 (f4327f4, 2025-05-13)"
   aria-label="devanshtab.dev"
   class="logoText"
   version="1.1"
   xmlns:inkscape="http://www.inkscape.org/namespaces/inkscape"
   xmlns:sodipodi="http://sodipodi.sourceforge.net/DTD/sodipodi-0.dtd"
   xmlns="http://www.w3.org/2000/svg"
   xmlns:svg="http://www.w3.org/2000/svg">
  <defs
     id="defs1" />
  <sodipodi:namedview
     id="namedview1"
     pagecolor="#ffffff"
     bordercolor="#000000"
     borderopacity="0.25"
     inkscape:showpageshadow="2"
     inkscape:pageopacity="0"
     inkscape:pagecheckerboard="0"
     inkscape:deskcolor="#d1d1d1"
     inkscape:zoom="2.7253495"
     inkscape:cx="173.73918"
     inkscape:cy="-0.55038812"
     inkscape:window-width="1920"
     inkscape:window-height="1057"
     inkscape:window-x="-8"
     inkscape:window-y="1072"
     inkscape:window-maximized="1"
     inkscape:current-layer="svg1" />
  <path
     d="m 156.07767,52.058445 h -21 v -3.5 h -3.5 v -3.499999 h 3.5 v -3.5 h 14 v -3.5 h -14 v -3.500001 h 17.5 v 3.500001 h 3.5 z m -17.5,-6.999999 v 3.499999 h 10.5 v -3.499999 z m 85.00326,8.354656 h -7 v -6.999999 h 7 z M 168.83932,35.442145 v 3.5 h 3.5 v 3.5 h -3.5 v 10.499998 h -7 V 35.442145 Z m 3.5,0 h 10.5 v 3.5 h -10.5 z m 34.93089,17.463819 h -17.5 v -3.5 h -3.5 V 38.905966 h 3.5 v -3.5 h 17.5 v 3.5 h 3.5 v 6.999999 h -17.5 v 3.499999 h 14 z m -14,-13.999998 v 3.5 h 10.5 v -3.5 z"
     id="path1"
     sodipodi:nodetypes="ccccccccccccccccccccccccccccccccccccccccccccccccccccccccccc"
     style="white-space: pre;" />
  <path
     d="m 71.46201,52.625999 h -21 v -3.5 h -3.5 V 38.626 h 3.5 v -3.5 h 14 v -7 h 7 z M 53.96201,38.626 v 10.499999 h 10.5 V 38.626 Z m 41.995,13.999999 h -17.5 v -3.5 h -3.5 V 38.626 h 3.5 v -3.5 h 17.5 v 3.5 h 3.5 v 7 h -17.5 v 3.499999 h 14 z m -14,-13.999999 v 3.5 h 10.5 v -3.5 z m 38.495,13.999999 h -7 v -3.5 h -3.5 V 45.626 h -3.5 v -10.5 h 7 v 10.5 h 7 v -10.5 h 7 v 10.5 h -3.5 v 3.499999 h -3.5 z"
     id="path1-5"
     sodipodi:nodetypes="ccccccccccccccccccccccccccccccccccccccccccccccccccccc"
     style="white-space: pre;" />
  <path
     d="m 255.219,53.593999 h -21 v -3.5 h -3.5 V 39.594 h 3.5 v -3.5 h 14 v -7 h 7 z M 237.719,39.594 v 10.499999 h 10.5 V 39.594 Z m 41.995,13.999999 h -17.5 v -3.5 h -3.5 V 39.594 h 3.5 v -3.5 h 17.5 v 3.5 h 3.5 v 7 h -17.5 v 3.499999 h 14 z m -14,-13.999999 v 3.5 h 10.5 v -3.5 z m 38.495,13.999999 h -7 v -3.5 h -3.5 V 46.594 h -3.5 v -10.5 h 7 v 10.5 h 7 v -10.5 h 7 v 10.5 h -3.5 v 3.499999 h -3.5 z"
     id="path1-5-9"
     sodipodi:nodetypes="ccccccccccccccccccccccccccccccccccccccccccccccccccccc"
     style="white-space: pre;" />
</svg>
